<svg width="1886" height="1419" viewBox="0 0 1886 1419" fill="none" xmlns="http://www.w3.org/2000/svg">
<rect x="1554" y="772" width="271" height="209" rx="9" fill="#262626"/>
<rect x="1789" y="915" width="36" height="209" rx="9" fill="black"/>
<rect x="1743" y="855" width="69" height="209" rx="9" fill="#8F8F8F"/>
<rect x="1810.76" y="1162.18" width="17.5248" height="183.135" rx="8.76242" transform="rotate(-159.425 1810.76 1162.18)" fill="#8F8F8F"/>
<rect x="1885.8" y="1149.78" width="17.5248" height="183.135" rx="8.76242" transform="rotate(152.067 1885.8 1149.78)" fill="#8F8F8F"/>
<rect x="311" y="860" width="106" height="92" rx="6" fill="black"/>
<rect x="515.055" y="919" width="91" height="24" rx="6" fill="#FFD54A"/>
<rect x="520.055" y="597" width="80" height="346" rx="8" fill="#262626"/>
<rect x="520.055" y="931" width="80" height="45" rx="8" fill="#FFD54A"/>
<rect x="507.055" y="960" width="106" height="92" rx="6" fill="#FFD54A"/>
<path d="M100.252 924.418C103.095 918.492 109.086 915 115.659 915H1014C1023.94 915 1032 923.059 1032 933V1243C1032 1252.94 1023.95 1261 1014.01 1261C949.928 1261 716.818 1261 350.14 1261C-41.8664 1261 73.6737 979.833 100.252 924.418Z" fill="#FF3939"/>
<rect x="343" y="915" width="133" height="137" fill="white"/>
<path d="M1396.78 784.931L1368.43 520.371C1367.78 514.283 1364.47 509.646 1361.03 510.015L1315.37 514.906C1311.93 515.274 1309.67 520.508 1310.32 526.596L1338.67 791.156C1339.32 797.244 1342.63 801.881 1346.07 801.512L1391.73 796.621C1395.17 796.252 1397.43 791.019 1396.78 784.931Z" fill="#CC6FDD"/>
<path d="M1356.12 492.708L1301.82 518.228C1298.82 519.637 1297.53 523.211 1298.94 526.21L1304.05 537.071C1305.46 540.07 1309.03 541.358 1312.03 539.949L1366.33 514.429C1369.33 513.02 1370.62 509.446 1369.21 506.447L1364.11 495.587C1362.7 492.588 1359.12 491.299 1356.12 492.708Z" fill="#FF4D4D"/>
<path d="M1366.67 488.803L1329.76 431.166C1328.28 428.865 1324.03 428.957 1320.26 431.372L1258.83 470.721C1255.06 473.135 1253.2 476.958 1254.67 479.259L1291.58 536.896C1293.06 539.197 1297.31 539.105 1301.08 536.69L1362.52 497.342C1366.29 494.927 1368.15 491.104 1366.67 488.803Z" fill="#FF4D4D"/>
<rect x="860.35" y="224.445" width="94.6606" height="170.346" rx="4" transform="rotate(-22.3906 860.35 224.445)" fill="#171717"/>
<rect x="860.35" y="238.732" width="6.15595" height="41.4788" rx="3.07798" transform="rotate(-22.3906 860.35 238.732)" fill="#CDCDCD"/>
<rect x="879.35" y="284.732" width="6.15595" height="19.3546" rx="3.07798" transform="rotate(-22.3906 879.35 284.732)" fill="#CDCDCD"/>
<circle cx="881.35" cy="235.387" r="8" fill="#D9D9D9"/>
<circle cx="887.85" cy="250.887" r="6.5" fill="#D9D9D9"/>
<path d="M740.373 280.027C723.744 135.002 740.095 121.759 869.347 63.887" stroke="#CC6FDD" stroke-width="9" stroke-linecap="round"/>
<path d="M796.762 271.968C785.85 186.636 803.949 154.053 880.609 120.936" stroke="#E37AF6" stroke-width="9" stroke-linecap="round"/>
<path d="M851.201 276.233C838.325 215.054 850.662 192.847 908.35 173.294" stroke="#F09FFF" stroke-width="9" stroke-linecap="round"/>
<rect x="1219.4" y="700.387" width="80" height="346" rx="8" fill="#262626"/>
<rect x="1065" y="706" width="80" height="346" rx="8" fill="#262626"/>
<circle cx="1177.4" cy="303.387" r="130" fill="#CC6FDD"/>
<path d="M1121.49 277.891C1101.97 272.495 1095.21 273.326 1079 279.546" stroke="black" stroke-width="4" stroke-linecap="round"/>
<path d="M1210.55 277.502C1191.09 271.048 1184.31 272.182 1168 280.171" stroke="black" stroke-width="4" stroke-linecap="round"/>
<ellipse cx="1103" cy="303" rx="12" ry="16" fill="black"/>
<ellipse cx="1189" cy="306.5" rx="12" ry="15.5" fill="black"/>
<path d="M1292.4 227.387C1292.4 196.887 1280.29 167.636 1258.72 146.07C1237.15 124.503 1207.9 112.387 1177.4 112.387C1146.9 112.387 1117.65 124.503 1096.09 146.07C1074.52 167.636 1062.4 196.887 1062.4 227.387L1177.4 227.387H1292.4Z" fill="#FFD54A"/>
<path d="M1292.4 227.387C1292.4 196.887 1280.29 167.636 1258.72 146.07C1237.15 124.503 1207.9 112.387 1177.4 112.387C1146.9 112.387 1117.65 124.503 1096.09 146.07C1074.52 167.636 1062.4 196.887 1062.4 227.387L1177.4 227.387H1292.4Z" fill="#FFD54A"/>
<path d="M1191.35 115.387C1191.35 111.674 1189.87 108.113 1187.25 105.488C1184.62 102.862 1181.06 101.387 1177.35 101.387C1173.64 101.387 1170.08 102.862 1167.45 105.488C1164.82 108.113 1163.35 111.674 1163.35 115.387L1177.35 115.387H1191.35Z" fill="#FFD54A"/>
<rect x="1041.4" y="227.387" width="271" height="24" fill="#FFD54A"/>
<rect x="1062.4" y="214.387" width="230" height="8" fill="#EFBF5D"/>
<rect x="1064.4" y="445.387" width="235" height="327" rx="32" fill="#FFD54A"/>
<rect x="998.459" y="456.943" width="99.0759" height="26.0878" rx="6" transform="rotate(69.666 998.459 456.943)" fill="#FF4D4D"/>
<rect x="1103.82" y="519.156" width="103.264" height="90.8195" rx="6" transform="rotate(159.666 1103.82 519.156)" fill="#FF4D4D"/>
<rect x="989.764" y="406.723" width="56" height="66" rx="6" transform="rotate(158.331 989.764 406.723)" fill="#CC6FDD"/>
<rect x="986.08" y="382.387" width="173.982" height="56" rx="6" transform="rotate(70.3249 986.08 382.387)" fill="#CC6FDD"/>
<path d="M1061.4 473.387C1061.4 455.162 1076.18 440.387 1094.4 440.387H1135.88C1153.52 440.387 1168.04 454.261 1168.84 471.883L1178.33 679.883C1179.19 698.679 1164.18 714.387 1145.36 714.387H1094.4C1076.18 714.387 1061.4 699.612 1061.4 681.387V473.387Z" fill="#FF4D4D"/>
<path d="M1192 468.784C1193.36 451.621 1207.68 438.387 1224.9 438.387H1279.4C1297.63 438.387 1312.4 453.162 1312.4 471.387V680.316C1312.4 698.175 1298.2 712.793 1280.35 713.303L1209.14 715.337C1189.52 715.898 1173.76 699.313 1175.3 679.747L1192 468.784Z" fill="#FF4D4D"/>
<rect x="1065.4" y="629.387" width="103" height="5" fill="white"/>
<rect x="1062.4" y="674.387" width="110" height="5" fill="white"/>
<rect x="1183.4" y="674.387" width="119" height="5" fill="#D9D9D9"/>
<rect x="1190.4" y="629.387" width="103" height="5" fill="white"/>
<rect x="1064.4" y="577.387" width="103" height="5" fill="white"/>
<rect x="1189.4" y="577.387" width="103" height="5" fill="white"/>
<rect x="1066.4" y="529.387" width="97" height="5" fill="white"/>
<rect x="1197.4" y="529.387" width="97" height="5" fill="white"/>
<rect x="901.35" y="334.387" width="24" height="47" rx="6" fill="#CC6FDD"/>
<rect width="56" height="66" rx="6" transform="matrix(-0.999999 -0.00104143 -0.00104143 0.999999 122.99 340.866)" fill="#FF77B2"/>
<rect width="24" height="71.8809" rx="6" transform="matrix(0.0126567 0.99992 0.99992 -0.0126567 0 342.135)" fill="#FF77B2"/>
<path d="M123.465 340.483L372.337 340.905C378.064 340.915 382.702 344.05 382.695 347.907L382.608 399.124C382.602 402.981 377.954 406.1 372.227 406.09L123.355 405.668C117.628 405.658 112.99 402.523 112.997 398.666L113.084 347.449C113.09 343.592 117.738 340.473 123.465 340.483Z" fill="#FF77B2"/>
<path d="M328.086 337.612L321.871 417.77C321.528 422.197 317.502 425.495 312.879 425.137L296.138 423.839C291.515 423.481 288.046 419.601 288.389 415.174L294.603 335.016C294.947 330.589 298.973 327.291 303.596 327.649L320.337 328.947C324.96 329.305 328.429 333.185 328.086 337.612Z" fill="#FF4D4D"/>
<path d="M317.123 333.821L385.519 336.407C388.249 336.51 390.326 340.22 390.157 344.694L387.401 417.599C387.232 422.073 384.881 425.616 382.151 425.513L313.755 422.928C311.024 422.825 308.948 419.114 309.117 414.64L311.872 341.735C312.042 337.261 314.392 333.718 317.123 333.821Z" fill="#FF4D4D"/>
<rect x="337" y="624" width="80" height="219" rx="9" fill="#262626"/>
<rect x="337" y="831" width="80" height="45" rx="8" fill="black"/>
<circle cx="478.055" cy="200" r="130" fill="#FF77B2"/>
<path d="M410.282 171.867C391.983 162.994 385.158 162.814 368.011 166.905" stroke="black" stroke-width="4" stroke-linecap="round"/>
<path d="M490.111 164.341C469.776 161.705 463.341 164.105 448.843 175.051" stroke="black" stroke-width="4" stroke-linecap="round"/>
<ellipse cx="395" cy="204" rx="12" ry="16" fill="black"/>
<ellipse cx="461" cy="204.5" rx="12" ry="15.5" fill="black"/>
<rect x="416" y="226" width="20" height="31" rx="8" fill="#98315E"/>
<rect x="1125" y="310" width="20" height="31" rx="8" fill="#7E4489"/>
<path d="M389 267C426.741 290.881 447.329 290.983 483.5 267" stroke="#A53968" stroke-width="4" stroke-linecap="round"/>
<rect x="365.055" y="342" width="235" height="327" rx="32" fill="black"/>
<rect x="331" y="819" width="91" height="24" rx="6" fill="black"/>
<path d="M362.055 370C362.055 351.775 376.829 337 395.055 337H436.526C454.166 337 468.688 350.874 469.492 368.496L478.981 576.496C479.838 595.292 464.831 611 446.015 611H395.055C376.829 611 362.055 596.225 362.055 578V370Z" fill="#FF4D4D"/>
<path d="M492.649 365.397C494.007 348.235 508.331 335 525.546 335H580.055C598.28 335 613.055 349.775 613.055 368V576.929C613.055 594.788 598.848 609.406 580.997 609.916L509.794 611.95C490.175 612.511 474.406 595.926 475.954 576.36L492.649 365.397Z" fill="#FF4D4D"/>
<rect x="366.055" y="526" width="103" height="5" fill="white"/>
<rect x="363.055" y="571" width="110" height="5" fill="white"/>
<rect x="484.055" y="571" width="119" height="5" fill="#D9D9D9"/>
<rect x="491.055" y="526" width="103" height="5" fill="white"/>
<rect x="365.055" y="474" width="103" height="5" fill="white"/>
<rect x="490.055" y="474" width="103" height="5" fill="white"/>
<rect x="367.055" y="426" width="97" height="5" fill="white"/>
<rect x="498.055" y="426" width="97" height="5" fill="white"/>
<path d="M794.018 604.813L661.817 373.907C658.775 368.593 653.876 365.679 650.874 367.397L611.023 390.213C608.022 391.931 608.055 397.632 611.097 402.945L743.299 633.852C746.341 639.165 751.24 642.08 754.242 640.362L794.093 617.546C797.094 615.827 797.061 610.127 794.018 604.813Z" fill="#FF77B2"/>
<path d="M639.431 353.518L599.948 398.696C597.768 401.192 598.023 404.982 600.518 407.163L609.554 415.059C612.049 417.24 615.839 416.985 618.02 414.49L657.503 369.311C659.683 366.816 659.428 363.025 656.933 360.845L647.897 352.948C645.402 350.768 641.612 351.023 639.431 353.518Z" fill="#FF4D4D"/>
<path d="M647.526 345.704L590.572 307.744C588.298 306.229 584.442 308.02 581.959 311.745L541.497 372.454C539.014 376.179 538.844 380.428 541.118 381.943L598.071 419.903C600.345 421.419 604.201 419.627 606.684 415.902L647.147 355.193C649.63 351.468 649.8 347.219 647.526 345.704Z" fill="#FF4D4D"/>
<path d="M1726.75 924.418C1723.91 918.492 1717.91 915 1711.34 915H813C803.058 915 795 923.059 795 933V1243C795 1252.94 803.047 1261 812.988 1261C877.072 1261 1110.18 1261 1476.86 1261C1868.87 1261 1753.33 979.833 1726.75 924.418Z" fill="#FF3939"/>
<rect x="837" y="915" width="133" height="137" fill="white"/>
<rect x="1287" y="915" width="133" height="137" fill="white"/>
<path d="M1180 362.94C1180 380.613 1165.67 394.94 1148 394.94C1130.33 394.94 1116 380.613 1116 362.94C1116 345.267 1130.33 352.44 1148 352.44C1165.67 352.44 1180 345.267 1180 362.94Z" fill="black"/>
<path d="M501.435 70.5605L483.742 113.808L449.727 96.5537L449.253 96.3145L449.041 96.8008L429.144 142.563L374.397 154.011L374.193 154.054L374.08 154.229L358.58 178.229L358.518 178.325L358.504 178.438L350.688 241.935L321.518 190.399L326.495 154.568L326.508 154.479L326.488 154.392L318.544 118.643L351.371 82.335L351.398 82.3047L351.421 82.2695L379.783 37.9844L475.247 32.5146L501.435 70.5605Z" fill="black" stroke="black"/>
<path d="M410.584 80.4961L433.039 128.264L476.279 109.175L476.715 108.982L476.929 109.409L502.143 159.879L571.543 172.508L571.737 172.543L571.855 172.702L591.483 199.151L591.552 199.244L591.573 199.357L601.521 252.925L638.67 212.513L632.376 173.079L632.359 172.977L632.385 172.876L642.444 133.484L600.865 93.4619L600.835 93.4326L600.81 93.3984L564.861 44.5479L443.79 38.5117L410.584 80.4961Z" fill="black" stroke="black"/>
<rect x="1052.88" y="1207.04" width="545.951" height="16.169" transform="rotate(-132.08 1052.88 1207.04)" fill="#FFD54A"/>
<path d="M1028.79 1252.52C1019.12 1236.08 1023.54 1214.98 1038.99 1203.79L1062.05 1187.11C1076.18 1176.88 1095.55 1177.91 1108.51 1189.6L1213.09 1283.85C1229.24 1298.4 1229.42 1323.67 1213.48 1338.46L1160.41 1387.7C1143.08 1403.78 1115.33 1399.71 1103.35 1379.33L1028.79 1252.52Z" fill="#FFD54A"/>
<rect x="64" y="1062" width="1699" height="26" fill="white"/>
<rect x="1562" y="759" width="25" height="13" fill="#020202"/>
<path d="M525.201 30.0168L473 50.9977L491.357 0.16905L510.856 0.353468L525.201 30.0168Z" fill="black"/>
</svg>
