<svg width="414" height="1131" viewBox="0 0 414 1131" fill="none" xmlns="http://www.w3.org/2000/svg">
<path d="M394.667 705.185L367.477 510.127C366.851 505.639 363.683 502.371 360.401 502.828L316.823 508.903C313.541 509.361 311.387 513.37 312.013 517.859L339.203 712.916C339.829 717.405 342.997 720.673 346.279 720.215L389.857 714.141C393.139 713.683 395.293 709.674 394.667 705.185Z" fill="#FF77B2"/>
<path d="M83.2117 359.087L86.6216 142.02C86.7001 137.024 83.7862 132.928 80.1132 132.871L31.3435 132.105C27.6705 132.047 24.6294 136.049 24.551 141.045L21.1411 358.112C21.0626 363.107 23.9765 367.203 27.6495 367.261L76.4192 368.027C80.0922 368.085 83.1333 364.082 83.2117 359.087Z" fill="#FF77B2"/>
<path d="M142.881 676H80.8809C75.9103 676 71.8809 680.029 71.8809 685V1013C71.8809 1017.97 75.9103 1022 80.8809 1022H142.881C147.851 1022 151.881 1017.97 151.881 1013V685C151.881 680.029 147.851 676 142.881 676Z" fill="#121760"/>
<path d="M298.881 676H234.881C230.463 676 226.881 679.582 226.881 684V1014C226.881 1018.42 230.463 1022 234.881 1022H298.881C303.299 1022 306.881 1018.42 306.881 1014V684C306.881 679.582 303.299 676 298.881 676Z" fill="#121760"/>
<path d="M298.881 1010H234.881C230.463 1010 226.881 1013.58 226.881 1018V1047C226.881 1051.42 230.463 1055 234.881 1055H298.881C303.299 1055 306.881 1051.42 306.881 1047V1018C306.881 1013.58 303.299 1010 298.881 1010Z" fill="black"/>
<path d="M143.881 1010H79.8809C75.4626 1010 71.8809 1013.58 71.8809 1018V1047C71.8809 1051.42 75.4626 1055 79.8809 1055H143.881C148.299 1055 151.881 1051.42 151.881 1047V1018C151.881 1013.58 148.299 1010 143.881 1010Z" fill="black"/>
<path d="M197.998 409C269.795 409 327.998 350.797 327.998 279C327.998 207.203 269.795 149 197.998 149C126.201 149 67.998 207.203 67.998 279C67.998 350.797 126.201 409 197.998 409Z" fill="#FF77B2"/>
<path d="M183.494 253.578C163.969 248.182 157.213 249.013 141 255.233" stroke="black" stroke-width="4" stroke-linecap="round"/>
<path d="M265.552 252.175C246.089 245.721 239.315 246.855 223 254.844" stroke="black" stroke-width="4" stroke-linecap="round"/>
<path d="M152.998 299C159.625 299 164.998 291.837 164.998 283C164.998 274.163 159.625 267 152.998 267C146.371 267 140.998 274.163 140.998 283C140.998 291.837 146.371 299 152.998 299Z" fill="black"/>
<path d="M247.998 300C254.625 300 259.998 293.06 259.998 284.5C259.998 275.94 254.625 269 247.998 269C241.371 269 235.998 275.94 235.998 284.5C235.998 293.06 241.371 300 247.998 300Z" fill="black"/>
<path d="M202.998 305H198.998C194.58 305 190.998 308.582 190.998 313V328C190.998 332.418 194.58 336 198.998 336H202.998C207.416 336 210.998 332.418 210.998 328V313C210.998 308.582 207.416 305 202.998 305Z" fill="#98315E"/>
<path d="M149.998 345C187.739 368.881 208.327 368.983 244.498 345" stroke="#98315E" stroke-width="4" stroke-linecap="round"/>
<path d="M274.881 421H103.881C86.2077 421 71.8809 435.327 71.8809 453V716C71.8809 733.673 86.2077 748 103.881 748H274.881C292.554 748 306.881 733.673 306.881 716V453C306.881 435.327 292.554 421 274.881 421Z" fill="black"/>
<path d="M145.881 1039H51.8809C48.5672 1039 45.8809 1041.69 45.8809 1045V1125C45.8809 1128.31 48.5672 1131 51.8809 1131H145.881C149.195 1131 151.881 1128.31 151.881 1125V1045C151.881 1041.69 149.195 1039 145.881 1039Z" fill="black"/>
<path d="M313.881 1039H219.881C216.567 1039 213.881 1041.69 213.881 1045V1125C213.881 1128.31 216.567 1131 219.881 1131H313.881C317.195 1131 319.881 1128.31 319.881 1125V1045C319.881 1041.69 317.195 1039 313.881 1039Z" fill="black"/>
<path d="M306.881 998H227.881C224.567 998 221.881 1000.69 221.881 1004V1016C221.881 1019.31 224.567 1022 227.881 1022H306.881C310.195 1022 312.881 1019.31 312.881 1016V1004C312.881 1000.69 310.195 998 306.881 998Z" fill="black"/>
<path d="M150.881 998H71.8809C68.5672 998 65.8809 1000.69 65.8809 1004V1016C65.8809 1019.31 68.5672 1022 71.8809 1022H150.881C154.195 1022 156.881 1019.31 156.881 1016V1004C156.881 1000.69 154.195 998 150.881 998Z" fill="black"/>
<path d="M354.691 485.723L301.227 512.955C298.275 514.459 297.1 518.072 298.604 521.025L304.05 531.718C305.554 534.67 309.167 535.845 312.12 534.341L365.584 507.109C368.537 505.605 369.711 501.992 368.207 499.039L362.761 488.346C361.257 485.394 357.644 484.219 354.691 485.723Z" fill="#192077"/>
<path d="M355.135 495.142L334.27 414.807C333.437 411.6 330.162 409.675 326.954 410.508L274.688 424.083C271.481 424.916 269.556 428.191 270.389 431.398L291.254 511.733C292.087 514.941 295.362 516.865 298.57 516.032L350.836 502.458C354.043 501.625 355.968 498.349 355.135 495.142Z" fill="#192077"/>
<path d="M16.7031 344.671L76.5486 340.368C79.8538 340.131 82.3406 337.259 82.103 333.954L81.2425 321.985C81.0049 318.679 78.1329 316.193 74.8277 316.43L14.9822 320.733C11.677 320.97 9.19022 323.842 9.42783 327.147L10.2883 339.116C10.5259 342.422 13.3979 344.908 16.7031 344.671Z" fill="#192077"/>
<path d="M19.4432 335.976L24.4615 470.912C24.6618 476.3 27.7633 480.557 31.3889 480.423L90.4711 478.225C94.0967 478.091 96.8734 473.614 96.6731 468.227L91.6548 333.29C91.4545 327.903 88.353 323.645 84.7274 323.78L25.6452 325.977C22.0196 326.112 19.2429 330.588 19.4432 335.976Z" fill="#192077"/>
<path d="M400.333 753.451C400.256 756.268 398.229 758.651 395.461 759.18L347.16 768.409C343.905 769.031 340.762 766.897 340.14 763.641L330.006 710.601C329.384 707.346 331.519 704.203 334.774 703.582L394.728 692.126C398.492 691.407 401.957 694.353 401.852 698.184L400.333 753.451Z" fill="#FF77B2"/>
<path d="M328.673 712.95L318.223 718.849C315.337 720.478 314.319 724.138 315.948 727.024L331.68 754.89C333.309 757.775 336.969 758.794 339.855 757.165L350.304 751.265C353.19 749.636 354.208 745.976 352.579 743.091L336.847 715.225C335.218 712.339 331.558 711.321 328.673 712.95Z" fill="#FF77B2"/>
<path d="M33.199 11.6245L25.065 12.8736C22.8189 13.2185 21.5033 16.7883 22.1266 20.8469L28.1454 60.0403C28.7686 64.0989 31.0947 67.1094 33.3408 66.7645L41.4748 65.5154C43.7209 65.1705 45.0365 61.6007 44.4132 57.5421L38.3945 18.3487C37.7712 14.2901 35.4451 11.2796 33.199 11.6245Z" fill="#FF77B2"/>
<path d="M97.6606 11.8484L88.7684 9.94946C86.3129 9.42509 83.5698 12.5237 82.6416 16.8703L73.6778 58.8455C72.7496 63.1922 73.9877 67.1409 76.4433 67.6653L85.3355 69.5642C87.791 70.0886 90.534 66.99 91.4623 62.6433L100.426 20.6682C101.354 16.3215 100.116 12.3727 97.6606 11.8484Z" fill="#FF77B2"/>
<path d="M12.3589 35.0403L6.78501 37.121C5.24581 37.6956 5.20083 41.3835 6.68453 45.3581L21.0125 83.7409C22.4962 87.7155 24.9467 90.4719 26.4859 89.8973L32.0598 87.8166C33.599 87.242 33.644 83.5542 32.1603 79.5795L17.8324 41.1968C16.3487 37.2221 13.8981 34.4658 12.3589 35.0403Z" fill="#FF77B2"/>
<path d="M61.0398 0.180338L52.2945 0.0601127C49.8796 0.0269134 47.8655 4.10194 47.7959 9.16193L47.1242 58.0256C47.0546 63.0855 48.9559 67.2144 51.3709 67.2476L60.1162 67.3678C62.5311 67.401 64.5452 63.326 64.6148 58.266L65.2865 9.40238C65.3561 4.34239 63.4548 0.213537 61.0398 0.180338Z" fill="#FF77B2"/>
<path d="M122.888 79.9641L113.095 73.0282C110.391 71.1129 105.806 72.9391 102.854 77.1073L74.3437 117.359C71.3914 121.527 71.1903 126.458 73.8944 128.374L83.6868 135.31C86.3909 137.225 90.9764 135.399 93.9287 131.231L122.439 90.9792C125.391 86.8111 125.592 81.8794 122.888 79.9641Z" fill="#FF77B2"/>
<path d="M68.8809 449C68.8809 430.775 83.6559 416 101.881 416H143.352C160.993 416 175.514 429.874 176.318 447.496L185.807 655.496C186.664 674.292 171.657 690 152.841 690H101.881C83.6559 690 68.8809 675.225 68.8809 657V449Z" fill="#192077"/>
<path d="M199.476 444.397C200.834 427.235 215.157 414 232.373 414H286.881C305.106 414 319.881 428.775 319.881 447V655.929C319.881 673.788 305.675 688.406 287.823 688.916L216.62 690.95C197.001 691.511 181.232 674.926 182.781 655.36L199.476 444.397Z" fill="#192077"/>
<path d="M31.9288 138.719L85.6955 136.992C89.7448 136.862 92.9216 133.463 92.7911 129.401L90.6651 63.2057C90.5346 59.1436 87.1463 55.956 83.097 56.0861L29.3303 57.8129C25.281 57.943 22.1042 61.3414 22.2347 65.4035L24.3607 131.599C24.4912 135.661 27.8795 138.849 31.9288 138.719Z" fill="#FF77B2"/>
<path d="M323.663 225.368L332.998 247L319.162 402.157L287.497 293.501L247.497 278L191.997 133.5L247.497 127L282.497 153L313.998 181L323.663 225.368Z" fill="#191919"/>
<path d="M71.1124 227.046L65.9981 238.5L75.6133 403.836L107.278 295.179L147.278 279.679L191.997 218.5L240.497 227.046L191.997 133.5L147.278 128L65.9986 179.5L71.1124 227.046Z" fill="#191919"/>
<path d="M285.998 165.5C285.998 141.233 276.358 117.959 259.198 100.8C242.039 83.6402 218.765 74 194.498 74C170.231 74 146.957 83.6401 129.798 100.8C112.638 117.959 102.998 141.233 102.998 165.5L194.498 165.5H285.998Z" fill="#192077"/>
<path d="M116.998 161.5L205.998 151L300.998 161.5V173.5H116.998V161.5Z" fill="#0E124C"/>
<path d="M238.998 502H282.998V522.143L269.728 549H254.363L238.998 523.203V502Z" fill="#FFD54A"/>
<path d="M85.6144 81.1602L82.5342 79.7201C81.6837 79.3224 79.4681 82.264 77.5856 86.2903L59.4065 125.172C57.524 129.198 56.6875 132.785 57.5381 133.182L60.6183 134.623C61.4689 135.02 63.6844 132.079 65.5669 128.052L83.746 89.1706C85.6285 85.1443 86.465 81.5579 85.6144 81.1602Z" fill="#BC5381"/>
<rect x="152.998" y="123" width="96" height="20" fill="#F6F6F6"/>
</svg>
