<svg width="174" height="477" viewBox="0 0 174 477" fill="none" xmlns="http://www.w3.org/2000/svg">
<path d="M166.265 297.385L154.798 215.127C154.534 213.234 153.198 211.856 151.814 212.049L133.437 214.611C132.053 214.804 131.144 216.494 131.408 218.387L142.875 300.645C143.139 302.538 144.475 303.917 145.859 303.724L164.236 301.162C165.62 300.969 166.528 299.278 166.265 297.385Z" fill="#FF77B2"/>
<path d="M34.9211 151.431L36.359 59.8913C36.3921 57.7848 35.1633 56.0574 33.6144 56.0331L13.0476 55.71C11.4987 55.6857 10.2162 57.3736 10.1831 59.4801L8.74512 151.02C8.71203 153.127 9.94085 154.854 11.4898 154.878L32.0566 155.201C33.6055 155.226 34.888 153.538 34.9211 151.431Z" fill="#FF77B2"/>
<path d="M60.0851 285.077H33.939C31.8428 285.077 30.1436 286.777 30.1436 288.873V427.194C30.1436 429.291 31.8428 430.99 33.939 430.99H60.0851C62.1813 430.99 63.8805 429.291 63.8805 427.194V288.873C63.8805 286.777 62.1813 285.077 60.0851 285.077Z" fill="#121760"/>
<path d="M125.872 285.077H98.8825C97.0192 285.077 95.5088 286.588 95.5088 288.451V427.616C95.5088 429.479 97.0192 430.99 98.8825 430.99H125.872C127.735 430.99 129.246 429.479 129.246 427.616V288.451C129.246 286.588 127.735 285.077 125.872 285.077Z" fill="#121760"/>
<path d="M125.872 425.929H98.8825C97.0192 425.929 95.5088 427.44 95.5088 429.303V441.533C95.5088 443.396 97.0192 444.906 98.8825 444.906H125.872C127.735 444.906 129.246 443.396 129.246 441.533V429.303C129.246 427.44 127.735 425.929 125.872 425.929Z" fill="black"/>
<path d="M60.5068 425.929H33.5173C31.654 425.929 30.1436 427.44 30.1436 429.303V441.533C30.1436 443.396 31.654 444.906 33.5173 444.906H60.5068C62.3701 444.906 63.8805 443.396 63.8805 441.533V429.303C63.8805 427.44 62.3701 425.929 60.5068 425.929Z" fill="black"/>
<path d="M83.3284 172.48C113.606 172.48 138.151 147.935 138.151 117.658C138.151 87.3801 113.606 62.8352 83.3284 62.8352C53.0508 62.8352 28.5059 87.3801 28.5059 117.658C28.5059 147.935 53.0508 172.48 83.3284 172.48Z" fill="#FF77B2"/>
<path d="M72.1497 110.443C63.9158 108.167 61.0667 108.517 54.2295 111.141" stroke="black" stroke-width="4" stroke-linecap="round"/>
<path d="M113.081 110.279C104.874 107.557 102.017 108.035 95.1367 111.404" stroke="black" stroke-width="4" stroke-linecap="round"/>
<path d="M64.3506 126.092C67.1454 126.092 69.4111 123.071 69.4111 119.345C69.4111 115.618 67.1454 112.597 64.3506 112.597C61.5557 112.597 59.29 115.618 59.29 119.345C59.29 123.071 61.5557 126.092 64.3506 126.092Z" fill="black"/>
<path d="M104.414 126.514C107.209 126.514 109.475 123.587 109.475 119.977C109.475 116.367 107.209 113.441 104.414 113.441C101.619 113.441 99.3535 116.367 99.3535 119.977C99.3535 123.587 101.619 126.514 104.414 126.514Z" fill="black"/>
<path d="M85.4375 128.622H83.7506C81.8874 128.622 80.377 130.133 80.377 131.996V138.321C80.377 140.185 81.8874 141.695 83.7506 141.695H85.4375C87.3007 141.695 88.8112 140.185 88.8112 138.321V131.996C88.8112 130.133 87.3007 128.622 85.4375 128.622Z" fill="#98315E"/>
<path d="M63.0859 145.491C79.0018 155.562 87.684 155.605 102.938 145.491" stroke="#98315E" stroke-width="4" stroke-linecap="round"/>
<path d="M115.751 177.541H43.6383C36.1854 177.541 30.1436 183.583 30.1436 191.036V301.946C30.1436 309.399 36.1854 315.441 43.6383 315.441H115.751C123.204 315.441 129.246 309.399 129.246 301.946V191.036C129.246 183.583 123.204 177.541 115.751 177.541Z" fill="black"/>
<path d="M61.3499 438.159H21.709C20.3116 438.159 19.1787 439.292 19.1787 440.689V474.426C19.1787 475.824 20.3116 476.956 21.709 476.956H61.3499C62.7474 476.956 63.8802 475.824 63.8802 474.426V440.689C63.8802 439.292 62.7474 438.159 61.3499 438.159Z" fill="black"/>
<path d="M132.198 438.159H92.5566C91.1592 438.159 90.0264 439.292 90.0264 440.689V474.426C90.0264 475.824 91.1592 476.956 92.5566 476.956H132.198C133.595 476.956 134.728 475.824 134.728 474.426V440.689C134.728 439.292 133.595 438.159 132.198 438.159Z" fill="black"/>
<path d="M129.246 420.869H95.9307C94.5332 420.869 93.4004 422.001 93.4004 423.399V428.459C93.4004 429.857 94.5332 430.99 95.9307 430.99H129.246C130.643 430.99 131.776 429.857 131.776 428.459V423.399C131.776 422.001 130.643 420.869 129.246 420.869Z" fill="black"/>
<path d="M63.4588 420.869H30.1436C28.7461 420.869 27.6133 422.001 27.6133 423.399V428.459C27.6133 429.857 28.7461 430.99 30.1436 430.99H63.4588C64.8562 430.99 65.9891 429.857 65.9891 428.459V423.399C65.9891 422.001 64.8562 420.869 63.4588 420.869Z" fill="black"/>
<path d="M149.409 204.835L126.862 216.319C125.617 216.954 125.122 218.477 125.756 219.722L128.053 224.232C128.687 225.477 130.21 225.972 131.456 225.338L154.002 213.854C155.247 213.22 155.743 211.696 155.108 210.451L152.812 205.942C152.177 204.696 150.654 204.201 149.409 204.835Z" fill="#192077"/>
<path d="M149.593 208.807L140.794 174.929C140.443 173.577 139.062 172.765 137.709 173.116L115.668 178.841C114.315 179.192 113.504 180.573 113.855 181.926L122.654 215.804C123.005 217.157 124.386 217.968 125.739 217.617L147.78 211.892C149.133 211.541 149.944 210.16 149.593 208.807Z" fill="#192077"/>
<path d="M6.87341 145.352L32.111 143.537C33.5048 143.437 34.5535 142.226 34.4533 140.832L34.0905 135.785C33.9903 134.391 32.7791 133.342 31.3853 133.442L6.14767 135.257C4.75384 135.357 3.70514 136.568 3.80534 137.962L4.16821 143.009C4.26842 144.403 5.47957 145.452 6.87341 145.352Z" fill="#192077"/>
<path d="M8.0296 141.685L10.1458 198.59C10.2303 200.861 11.5383 202.657 13.0672 202.6L37.9829 201.674C39.5119 201.617 40.6828 199.729 40.5984 197.457L38.4821 140.553C38.3976 138.281 37.0897 136.485 35.5607 136.542L10.645 137.469C9.11608 137.525 7.94511 139.413 8.0296 141.685Z" fill="#192077"/>
<path d="M168.654 317.74C168.621 318.927 167.767 319.933 166.6 320.156L146.23 324.047C144.858 324.31 143.532 323.41 143.27 322.037L138.996 299.669C138.734 298.296 139.634 296.971 141.007 296.709L166.29 291.878C167.878 291.575 169.339 292.817 169.294 294.433L168.654 317.74Z" fill="#FF77B2"/>
<path d="M138.433 300.659L134.027 303.147C132.81 303.834 132.38 305.378 133.067 306.595L139.702 318.346C140.389 319.563 141.932 319.992 143.149 319.305L147.556 316.818C148.773 316.131 149.202 314.587 148.515 313.37L141.881 301.619C141.194 300.402 139.65 299.972 138.433 300.659Z" fill="#FF77B2"/>
<path d="M13.8308 4.90224L10.4006 5.429C9.45342 5.57446 8.89862 7.07988 9.16146 8.79144L11.6997 25.3198C11.9625 27.0313 12.9434 28.3009 13.8907 28.1554L17.3208 27.6287C18.2681 27.4832 18.8229 25.9778 18.56 24.2662L16.0218 7.73792C15.759 6.02636 14.778 4.75678 13.8308 4.90224Z" fill="#FF77B2"/>
<path d="M41.0146 4.9966L37.2646 4.19581C36.2291 3.97467 35.0723 5.28139 34.6809 7.11443L30.9008 24.8159C30.5093 26.6489 31.0315 28.3141 32.067 28.5353L35.8169 29.3361C36.8524 29.5572 38.0092 28.2505 38.4007 26.4175L42.1808 8.71602C42.5722 6.88298 42.0501 5.21774 41.0146 4.9966Z" fill="#FF77B2"/>
<path d="M5.04248 14.7768L2.6919 15.6543C2.0428 15.8966 2.02383 17.4518 2.64953 19.128L8.69179 35.3144C9.31749 36.9906 10.3509 38.153 11 37.9107L13.3506 37.0332C13.9997 36.7909 14.0187 35.2357 13.393 33.5595L7.3507 17.3731C6.72501 15.6969 5.69158 14.5345 5.04248 14.7768Z" fill="#FF77B2"/>
<path d="M25.572 0.0760508L21.884 0.0253503C20.8656 0.0113497 20.0163 1.72984 19.9869 3.8637L19.7036 24.4701C19.6743 26.6039 20.4761 28.3451 21.4945 28.3591L25.1825 28.4098C26.2009 28.4238 27.0503 26.7053 27.0796 24.5715L27.3629 3.9651C27.3923 1.83124 26.5904 0.0900513 25.572 0.0760508Z" fill="#FF77B2"/>
<path d="M51.6534 33.7217L47.5238 30.7967C46.3834 29.989 44.4497 30.7592 43.2047 32.5169L31.1817 49.4914C29.9367 51.2492 29.8519 53.3289 30.9922 54.1366L35.1218 57.0616C36.2622 57.8693 38.1959 57.0991 39.4409 55.3414L51.4639 38.3669C52.7089 36.6091 52.7937 34.5294 51.6534 33.7217Z" fill="#FF77B2"/>
<path d="M28.8779 189.349C28.8779 181.663 35.1087 175.432 42.7944 175.432H60.2833C67.7227 175.432 73.8464 181.283 74.1854 188.714L78.187 276.43C78.5484 284.357 72.2198 290.981 64.2849 290.981H42.7944C35.1087 290.981 28.8779 284.75 28.8779 277.065V189.349Z" fill="#192077"/>
<path d="M83.952 187.408C84.5247 180.17 90.5649 174.589 97.8251 174.589H120.812C128.497 174.589 134.728 180.82 134.728 188.505V276.613C134.728 284.145 128.737 290.309 121.209 290.524L91.1819 291.382C82.9083 291.619 76.2583 284.625 76.9115 276.373L83.952 187.408Z" fill="#192077"/>
<path d="M13.2945 58.4994L35.9686 57.7712C37.6762 57.7163 39.0159 56.2832 38.9609 54.5702L38.0644 26.6547C38.0093 24.9416 36.5804 23.5974 34.8728 23.6523L12.1987 24.3805C10.4911 24.4353 9.1514 25.8685 9.20642 27.5815L10.103 55.497C10.158 57.21 11.5869 58.5543 13.2945 58.4994Z" fill="#FF77B2"/>
<path d="M136.323 95.0403L140.26 104.163L134.425 169.595L121.072 123.773L104.203 117.236L80.7982 56.2986L104.203 53.5575L118.963 64.522L132.248 76.3299L136.323 95.0403Z" fill="#191919"/>
<path d="M29.819 95.7479L27.6622 100.578L31.717 170.302L45.0705 124.48L61.939 117.944L80.7974 92.144L101.25 95.7479L80.7977 56.2984L61.939 53.979L27.6624 75.6973L29.819 95.7479Z" fill="#191919"/>
<path d="M120.439 69.7934C120.439 59.5596 116.374 49.745 109.137 42.5086C101.901 35.2722 92.0861 31.2068 81.8523 31.2068C71.6185 31.2068 61.8038 35.2722 54.5674 42.5086C47.331 49.745 43.2656 59.5596 43.2656 69.7934L81.8523 69.7934H120.439Z" fill="#192077"/>
<path d="M49.1689 68.1064L86.7013 63.6785L126.764 68.1064V73.167H49.1689V68.1064Z" fill="#0E124C"/>
<path d="M100.619 211.699H119.174V220.194L113.578 231.52H107.099L100.619 220.641V211.699Z" fill="#FFD54A"/>
<path d="M35.9348 34.2262L34.6358 33.6188C34.2771 33.4511 33.3428 34.6916 32.5489 36.3896L24.8826 52.7865C24.0887 54.4844 23.7359 55.9968 24.0946 56.1646L25.3936 56.7719C25.7523 56.9396 26.6866 55.6991 27.4805 54.0011L35.1468 37.6043C35.9407 35.9063 36.2935 34.3939 35.9348 34.2262Z" fill="#BC5381"/>
<rect x="64.3516" y="51.8706" width="40.4844" height="8.43424" fill="#F6F6F6"/>
</svg>
